<svg data-v-0dd9719b="" version="1.0" xmlns="http://www.w3.org/2000/svg" xmlns:xlink="http://www.w3.org/1999/xlink" width="100%" height="100%" viewBox="0 0 340.000000 250.000000" preserveAspectRatio="xMidYMid meet" color-interpolation-filters="sRGB" style="margin: auto;"> <rect data-v-0dd9719b="" x="0" y="0" width="100%" height="100%" fill="#fff" fill-opacity="1" class="background"></rect> <rect data-v-0dd9719b="" x="0" y="0" width="100%" height="100%" fill="url(#watermark)" fill-opacity="1" class="watermarklayer"></rect> <g data-v-0dd9719b="" fill="#333" class="icon-text-wrapper icon-svg-group iconsvg" transform="translate(69.24031066894531,90.35876846313477)"><g class="iconsvg-imagesvg" transform="translate(0,0)"><g><rect fill="#333" fill-opacity="0" stroke-width="2" x="0" y="0" width="60" height="69.28246460820766" class="image-rect"></rect> <svg x="0" y="0" width="60" height="69.28246460820766" filtersec="colorsb9606255338" class="image-svg-svg primary" style="overflow: visible;"><svg viewBox="34.233001708984375 0 442.5679931640625 511.03399658203125" xmlns="http://www.w3.org/2000/svg"><path d="M255.517 0L34.233 127.758v255.517l221.284 127.759 221.284-127.759V127.758zm15 151.418H405.82l-135.304 78.118v-78.118zm-30 78.118l-135.304-78.118h135.304zm-14.499 26.27l-68.059 39.08-67.876-117.563zm14.499 26.267v155.802l-67.557-117.01zm30-.576l67.652 39.059-67.652 117.177zm15-25.98l135.304-78.118-67.652 117.177zm-15-134.099V43.301l135.304 78.118H270.517zm-30 0H105.213L240.517 43.3zM64.233 192.55l67.711 117.275-67.711 38.88zm82.71 143.255l67.469 116.857L79.294 374.65zm217.206-.249l67.652 39.059-135.304 78.118zm15-25.981l67.652-117.177v156.235z" fill="#ffb655"></path><path d="M255.517 0v511.034l221.284-127.759V127.758zm15 43.301l135.304 78.118H270.517zm0 108.117H405.82l-135.304 78.118v-78.118zm150.304 25.981l-67.652 117.177-67.652-39.059zM270.517 281.497l67.652 39.059-67.652 117.177zm25.98 171.236l67.652-117.177 67.652 39.059zm150.304-104.099l-67.652-39.059 67.652-117.177z" fill="#ff7c48"></path></svg></svg> <!----></g></g> <g transform="translate(64,12.139982223510742)"><g data-gra="path-name" fill-rule="" class="tp-name iconsvg-namesvg" transform="translate(0,0)"><g transform="scale(1)"><g><path d="M14.3-26.18L17.25-26.18Q18.5-24.26 19.98-22.69 21.47-21.12 23.18-19.82 24.9-18.53 26.78-17.46 28.67-16.38 30.75-15.42L30.75-15.42 28.58-11.68Q27.04-12.45 25.7-13.28 24.35-14.11 23.14-14.94L23.14-14.94 23.14-12.64 8.16-12.64 8.16-14.62Q7.01-13.79 5.71-13.01 4.42-12.22 2.98-11.49L2.98-11.49 0.83-15.3Q5.89-17.66 9.14-20.48 12.38-23.3 14.3-26.18L14.3-26.18ZM10.5-16.38L21.25-16.38Q17.89-19.1 15.78-22.05L15.78-22.05Q14.66-20.51 13.38-19.12 12.1-17.73 10.5-16.38L10.5-16.38ZM5.66 2.43L5.66-10.3 25.86-10.3 25.86 2.43 5.66 2.43ZM9.86-6.72L9.86-1.34 21.76-1.34 21.76-6.72 9.86-6.72ZM35.07-12.35L35.07-24.58 44.06-24.58 44.06-0.45Q44.06 0.51 43.94 1.1 43.81 1.7 43.47 2.05 43.14 2.4 42.54 2.56 41.95 2.72 41.02 2.85L41.02 2.85 39.46 3.04 38.24-0.74 39.46-0.9Q40.26-0.99 40.43-1.18 40.61-1.38 40.61-2.02L40.61-2.02 40.61-6.37 38.34-6.37Q38.21-4.83 37.98-3.58 37.76-2.34 37.42-1.22 37.09-0.1 36.62 1.01 36.16 2.11 35.58 3.33L35.58 3.33 32.26 1.47Q32.99 0.26 33.52-0.88 34.05-2.02 34.4-3.52 34.75-5.02 34.91-7.12 35.07-9.22 35.07-12.35L35.07-12.35ZM57.73-6.5L61.31-5.38Q61.31-5.18 61.3-4.72 61.28-4.26 61.23-3.71 61.18-3.17 61.14-2.59 61.09-2.02 61.06-1.57L61.06-1.57Q60.9-0.32 60.56 0.48 60.22 1.28 59.65 1.76 59.07 2.24 58.18 2.45 57.28 2.66 56.03 2.72L56.03 2.72Q52.83 2.88 49.66 2.72L49.66 2.72Q48.58 2.69 47.74 2.45 46.91 2.21 46.34 1.68 45.76 1.15 45.47 0.26 45.18-0.64 45.18-2.02L45.18-2.02 45.18-24.35 59.65-24.35 59.65-9.34 48.9-9.34 48.9-3.42Q48.9-2.78 48.98-2.37 49.06-1.95 49.28-1.7 49.5-1.44 49.92-1.31 50.34-1.18 51.04-1.15L51.04-1.15Q52.93-1.06 54.85-1.15L54.85-1.15Q56.26-1.22 56.77-1.6 57.28-1.98 57.44-3.1L57.44-3.1Q57.57-3.87 57.63-4.85 57.7-5.82 57.73-6.5L57.73-6.5ZM40.61-20.61L38.5-20.61 38.5-17.12 40.61-17.12 40.61-20.61ZM50.69-20.58L48.9-20.58 48.9-13.28 50.69-13.28 50.69-20.58ZM56-13.28L56-20.58 54.21-20.58 54.21-13.28 56-13.28ZM38.5-10.14L40.61-10.14 40.61-13.34 38.5-13.34 38.5-10.14ZM88.77-5.82L92.67-4.74Q92.67-4.38 92.62-3.94 92.58-3.49 92.53-3.01 92.48-2.53 92.43-2.06 92.38-1.6 92.32-1.25L92.32-1.25Q92.13-0.13 91.81 0.59 91.49 1.31 90.93 1.74 90.37 2.18 89.49 2.38 88.61 2.59 87.3 2.66L87.3 2.66Q86.08 2.72 84.94 2.72 83.81 2.72 82.59 2.66L82.59 2.66Q81.44 2.59 80.59 2.35 79.74 2.11 79.2 1.62 78.66 1.12 78.38 0.3 78.11-0.51 78.11-1.76L78.11-1.76 78.11-8.35Q77.44-6.56 76.45-4.96 75.46-3.36 74.1-1.87 72.74-0.38 70.99 1.01 69.25 2.4 67.04 3.81L67.04 3.81 64.1 0.06Q66.34-1.22 68.08-2.53 69.82-3.84 71.1-5.25 72.38-6.66 73.25-8.22 74.11-9.79 74.62-11.62L74.62-11.62 65.92-11.62 65.92-15.49 75.39-15.49Q75.46-16 75.49-16.54 75.52-17.09 75.55-17.63L75.55-17.63Q75.58-17.89 75.6-18.69 75.62-19.49 75.65-20.32L75.65-20.32 67.71-20.32 67.71-24.13 89.63-24.13 89.63-20.32 79.87-20.32Q79.84-19.39 79.84-18.53 79.84-17.66 79.81-17.34L79.81-17.34Q79.78-16.86 79.74-16.4 79.71-15.94 79.68-15.49L79.68-15.49 91.68-15.49 91.68-11.62 79.07-11.62Q79.01-11.26 78.93-10.96 78.85-10.66 78.75-10.34L78.75-10.34 82.21-10.21 82.21-2.88Q82.21-1.95 82.59-1.6 82.98-1.25 83.87-1.15L83.87-1.15Q84.58-1.09 85.14-1.09 85.7-1.09 86.37-1.15L86.37-1.15Q87.01-1.22 87.38-1.31 87.74-1.41 87.97-1.6 88.19-1.79 88.3-2.11 88.42-2.43 88.51-2.94L88.51-2.94Q88.54-3.17 88.59-3.57 88.64-3.97 88.69-4.38 88.74-4.8 88.75-5.18 88.77-5.57 88.77-5.82L88.77-5.82ZM121.25-24.8L121.25-11.94 98.66-11.94 98.66-24.8 121.25-24.8ZM108.03-21.57L102.66-21.57 102.66-19.94 108.03-19.94 108.03-21.57ZM117.15-19.94L117.15-21.57 111.94-21.57 111.94-19.94 117.15-19.94ZM102.66-16.7L102.66-15.2 108.03-15.2 108.03-16.7 102.66-16.7ZM111.94-15.2L117.15-15.2 117.15-16.7 111.94-16.7 111.94-15.2ZM124.45-0.32L122.34 3.36Q120.16 2.75 118.34 2.14 116.51 1.54 114.96 0.83 113.41 0.13 112.11-0.67 110.82-1.47 109.7-2.43L109.7-2.43 109.82 0.83Q109.47 0.9 108.69 1.12 107.9 1.34 106.91 1.65 105.92 1.95 104.82 2.29 103.71 2.62 102.75 2.91L102.75 2.91Q102.08 3.14 101.39 3.38 100.7 3.62 100.03 3.87L100.03 3.87 98.66 0.38Q99.2-0.03 99.31-0.42 99.42-0.8 99.42-1.06L99.42-1.06 99.42-7.3 96.38-7.3 96.38-10.69 123.33-10.69 123.33-7.3 119.68-7.3 121.09-5.09Q120.16-4.45 119.06-3.79 117.95-3.14 116.61-2.46L116.61-2.46Q119.71-1.18 124.45-0.32L124.45-0.32ZM103.42-7.3L103.42-0.93Q104.77-1.31 106.32-1.81 107.87-2.3 109.31-2.75L109.31-2.75Q107.23-4.67 105.7-7.3L105.7-7.3 103.42-7.3ZM117.6-7.3L110.21-7.3Q110.78-6.53 111.42-5.86 112.06-5.18 112.83-4.61L112.83-4.61Q114.24-5.28 115.41-5.95 116.58-6.62 117.6-7.3L117.6-7.3Z" transform="translate(-0.8300000429153442, 26.18000030517578)"></path></g> <!----> <!----> <!----> <!----> <!----> <!----> <!----></g></g> <g data-gra="path-slogan" fill-rule="" class="tp-slogan iconsvg-slogansvg" fill="#333" transform="translate(-13.900001525878906,35.04999923706055)"><rect width="0"></rect> <rect x="154.4199981689453" width="0"></rect> <g transform="translate(0,0)"><g transform="scale(1)"><path d="M2.06-5.06L6.56-5.06L6.56-8.58L7.73-8.58L7.73 0L6.56 0L6.56-3.98L2.06-3.98L2.06 0L0.89 0L0.89-8.58L2.06-8.58L2.06-5.06ZM14.83-1.03L19.98-1.03L19.98 0L13.66 0L13.66-8.58L19.89-8.58L19.89-7.59L14.83-7.59L14.83-4.92L19.52-4.92L19.52-3.89L14.83-3.89L14.83-1.03ZM31.02-3.89L26.80-3.89L26.80 0L25.63 0L25.63-8.58L31.58-8.58L31.58-7.59L26.80-7.59L26.80-4.92L31.02-4.92L31.02-3.89ZM38.06-1.03L43.22-1.03L43.22 0L36.89 0L36.89-8.58L43.13-8.58L43.13-7.59L38.06-7.59L38.06-4.92L42.75-4.92L42.75-3.89L38.06-3.89L38.06-1.03ZM48.91-8.58L50.08-8.58L50.08 0L48.91 0L48.91-8.58ZM68.91-3.89L64.69-3.89L64.69 0L63.52 0L63.52-8.58L69.47-8.58L69.47-7.59L64.69-7.59L64.69-4.92L68.91-4.92L68.91-3.89ZM75.95-1.03L81.11-1.03L81.11 0L74.78 0L74.78-8.58L81.02-8.58L81.02-7.59L75.95-7.59L75.95-4.92L80.64-4.92L80.64-3.89L75.95-3.89L75.95-1.03ZM92.28 0L91.44-2.48L87.97-2.48L87.08 0L85.91 0L89.14-8.58L90.45-8.58L93.55 0L92.28 0ZM89.70-7.31L88.34-3.52L91.02-3.52L89.75-7.31L89.70-7.31ZM102.70-3.70L99.89-3.70L99.89 0L98.72 0L98.72-8.58L102.70-8.58Q105.56-8.58 105.56-6.28L105.56-6.28Q105.56-4.88 104.34-4.22L104.34-4.22Q105.38-3.94 105.38-2.58L105.38-2.58L105.47-1.03Q105.42-0.38 105.89-0.19L105.89-0.19L105.89 0L104.44 0Q104.30-0.61 104.25-2.16L104.25-2.16Q104.30-3.70 102.70-3.70L102.70-3.70ZM102.80-7.64L99.89-7.64L99.89-4.69L102.61-4.69Q104.34-4.69 104.34-6.19L104.34-6.19Q104.34-7.64 102.80-7.64L102.80-7.64ZM111.20-8.58L112.38-8.58L112.38-1.03L116.73-1.03L116.73 0L111.20 0L111.20-8.58ZM123.17-1.03L128.33-1.03L128.33 0L122 0L122-8.58L128.23-8.58L128.23-7.59L123.17-7.59L123.17-4.92L127.86-4.92L127.86-3.89L123.17-3.89L123.17-1.03ZM140.11-6.09L140.11-6.09L139.03-6.09Q138.94-7.73 136.88-7.83L136.88-7.83Q134.95-7.78 134.95-6.33L134.95-6.33Q134.95-5.39 135.98-5.25L135.98-5.25L138.42-4.69Q140.34-4.22 140.34-2.34L140.34-2.34Q140.30 0.05 136.97 0.14L136.97 0.14Q135.14 0.14 134.39-0.61L134.39-0.61Q133.45-1.31 133.50-2.77L133.50-2.77L134.63-2.77Q134.67-0.80 136.97-0.75L136.97-0.75Q139.22-0.80 139.27-2.20L139.27-2.20Q139.45-3.38 137.39-3.75L137.39-3.75L135.61-4.13Q133.78-4.64 133.78-6.19L133.78-6.19Q133.92-8.72 136.78-8.81L136.78-8.81Q140.02-8.81 140.11-6.09ZM152.08-6.09L152.08-6.09L151-6.09Q150.91-7.73 148.84-7.83L148.84-7.83Q146.92-7.78 146.92-6.33L146.92-6.33Q146.92-5.39 147.95-5.25L147.95-5.25L150.39-4.69Q152.31-4.22 152.31-2.34L152.31-2.34Q152.27 0.05 148.94 0.14L148.94 0.14Q147.11 0.14 146.36-0.61L146.36-0.61Q145.42-1.31 145.47-2.77L145.47-2.77L146.59-2.77Q146.64-0.80 148.94-0.75L148.94-0.75Q151.19-0.80 151.23-2.20L151.23-2.20Q151.42-3.38 149.36-3.75L149.36-3.75L147.58-4.13Q145.75-4.64 145.75-6.19L145.75-6.19Q145.89-8.72 148.75-8.81L148.75-8.81Q151.98-8.81 152.08-6.09Z" transform="translate(-0.890625, 8.8125)"></path></g></g></g></g></g><defs v-gra="od"></defs></svg>